<svg data-v-fde0c5aa="" xmlns="http://www.w3.org/2000/svg" viewBox="0 0 300 300" class="iconLeft"><!----><defs data-v-fde0c5aa=""><!----></defs><rect data-v-fde0c5aa="" fill="transparent" x="0" y="0" width="300px" height="300px" class="logo-background-square"></rect><defs data-v-fde0c5aa=""><linearGradient data-v-fde0c5aa="" gradientTransform="rotate(25)" id="8d4d0907-a138-4557-959a-83b7e162bd8e" x1="0%" y1="0%" x2="100%" y2="0%"><stop data-v-fde0c5aa="" offset="0%" stop-color="#147A8D" stop-opacity="1"></stop><stop data-v-fde0c5aa="" offset="100%" stop-color="#5A0E1D" stop-opacity="1"></stop></linearGradient></defs><g data-v-fde0c5aa="" id="851c3076-b149-4beb-b2fb-ab922d8a79d1" fill="url(#8d4d0907-a138-4557-959a-83b7e162bd8e)" transform="matrix(2.898259162902832,0,0,2.898259162902832,110.36287478148945,120.33631625524427)"><path d="M2.73 11.72C2.73 11.06 2.95 10.74 3.37 10.50C3.81 10.26 4.30 10.07 4.63 9.91L4.63 11.94C4.61 12.70 4.14 12.89 3.77 12.89C3.22 12.89 2.73 12.46 2.73 11.72ZM0.57 11.96C0.57 13.01 1.27 13.99 2.69 13.99C3.58 13.99 4.20 13.50 4.69 13.17C4.87 13.61 5.11 13.99 5.78 13.99C6.51 13.99 7.39 13.75 7.85 13.57L7.81 13.10C7.63 13.12 7.35 13.10 7.14 13.03C6.96 12.98 6.69 12.81 6.69 11.98L6.69 8.75C6.69 7.88 6.55 6.79 4.07 6.79C2.02 6.79 0.76 7.60 0.76 8.51C0.76 9.14 1.65 9.39 2.02 9.39C2.32 9.39 2.48 9.17 2.59 8.83C2.98 7.64 3.43 7.43 3.82 7.43C4.23 7.43 4.63 7.67 4.63 8.47L4.63 9.21C4.14 9.55 2.97 9.90 2.06 10.21C0.95 10.58 0.57 11.16 0.57 11.96ZM10.91 11.69L10.91 9.48C10.91 9.18 10.93 8.90 11.00 8.71C11.19 8.19 11.54 7.87 12.12 7.87C12.78 7.87 13.52 8.23 13.52 10.50C13.52 12.24 13.15 13.34 12.07 13.34C11.45 13.34 11.09 13.02 10.96 12.40C10.92 12.19 10.91 11.96 10.91 11.69ZM7.88 16.51L7.88 17.04L12.07 17.04L12.07 16.51C11.05 16.46 10.91 16.41 10.91 15.82L10.91 13.82C11.14 13.92 11.63 13.99 12.01 13.99C14.08 13.99 15.75 13.26 15.75 10.19C15.75 7.87 14.53 6.79 13.22 6.79C12.24 6.79 11.59 7.24 10.91 7.76L10.65 6.79L7.97 7.20L7.97 7.70L8.46 7.77C8.68 7.80 8.79 7.92 8.79 8.48L8.79 15.82C8.79 16.41 8.68 16.46 7.88 16.51ZM16.59 13.82L20.52 13.82L20.52 13.29C19.73 13.24 19.61 13.19 19.61 12.60L19.61 6.87L19.52 6.79L16.67 7.20L16.67 7.70L17.16 7.77C17.39 7.80 17.50 7.92 17.50 8.48L17.50 12.60C17.50 13.19 17.39 13.24 16.59 13.29ZM17.21 4.96C17.21 5.63 17.70 6.19 18.48 6.19C19.25 6.19 19.77 5.63 19.77 4.96C19.77 4.30 19.28 3.74 18.48 3.74C17.70 3.74 17.21 4.30 17.21 4.96ZM21.17 13.82L25.86 13.82L25.86 13.29C24.63 13.24 24.51 13.17 24.51 12.46L24.51 9.37L26.11 9.37C26.99 9.37 27.17 9.60 27.40 10.63L27.93 10.63L27.93 7.38L27.40 7.38C27.17 8.40 26.99 8.64 26.11 8.64L24.51 8.64L24.51 5.28C24.51 4.87 24.61 4.77 25.00 4.77L25.94 4.77C27.38 4.77 27.64 5.36 28.07 6.72L28.60 6.72L28.60 4.13L21.17 4.13L21.17 4.66C22.16 4.70 22.27 4.77 22.27 5.49L22.27 12.46C22.27 13.17 22.16 13.24 21.17 13.29ZM31.65 10.39C31.65 8.51 32.06 7.43 33.05 7.43C34.05 7.43 34.45 8.51 34.45 10.39C34.45 12.26 34.05 13.34 33.05 13.34C32.06 13.34 31.65 12.26 31.65 10.39ZM29.43 10.39C29.43 12.63 30.51 13.99 33.05 13.99C35.60 13.99 36.68 12.63 36.68 10.39C36.68 8.15 35.60 6.79 33.05 6.79C30.51 6.79 29.43 8.15 29.43 10.39ZM37.51 13.82L41.73 13.82L41.73 13.29C40.66 13.23 40.53 13.19 40.53 12.60L40.53 9.46C40.53 8.74 40.67 8.41 41.01 8.41C41.23 8.41 41.44 8.53 41.75 8.71C41.93 8.82 42.13 8.93 42.39 8.93C42.67 8.93 42.95 8.78 43.11 8.57C43.26 8.36 43.33 8.08 43.33 7.77C43.33 7.17 42.94 6.79 42.35 6.79C41.76 6.79 41.30 7.17 40.49 8.02L40.32 6.79L37.59 7.20L37.59 7.70L38.08 7.77C38.30 7.80 38.42 7.92 38.42 8.48L38.42 12.60C38.42 13.19 38.30 13.24 37.51 13.29ZM43.57 13.82L47.50 13.82L47.50 13.29C46.70 13.24 46.59 13.19 46.59 12.60L46.59 10.26L46.62 10.26C47.10 11.19 47.66 12.14 48.30 12.99C48.79 13.64 49.35 13.82 50.37 13.82L51.63 13.82L51.63 13.37C51.34 13.26 51.16 13.09 50.74 12.61C49.80 11.56 49.01 10.47 48.27 9.30L48.58 8.99C49.32 8.27 50.18 7.66 51.35 7.41L51.35 6.96L49.32 6.96C49.01 6.96 48.75 7.07 48.50 7.38C48.23 7.73 47.95 8.13 47.63 8.58L46.62 10.01L46.59 10.01L46.59 3.51L46.49 3.43L43.65 3.81L43.65 4.31L44.14 4.40C44.37 4.44 44.48 4.56 44.48 5.12L44.48 12.60C44.48 13.19 44.37 13.24 43.57 13.29Z"></path></g><defs data-v-fde0c5aa=""><linearGradient data-v-fde0c5aa="" gradientTransform="rotate(25)" id="0c0e5792-6b2e-4977-aa7f-643406c85072" x1="0%" y1="0%" x2="100%" y2="0%"><stop data-v-fde0c5aa="" offset="0%" stop-color="#5A0E1D" stop-opacity="1"></stop><stop data-v-fde0c5aa="" offset="100%" stop-color="#147A8D" stop-opacity="1"></stop></linearGradient></defs><g data-v-fde0c5aa="" id="4fb7ecea-ed14-4e90-bad2-d919bd262851" stroke="none" fill="url(#0c0e5792-6b2e-4977-aa7f-643406c85072)" transform="matrix(1.9710854291915894,0,0,1.9710854291915894,22.14252882641292,102.71365647717579)"><path d="M39 14a5 5 0 1 0-6.09 4.87A4.6 4.6 0 0 1 28 23h-8c-.48 0-4.43-.16-4.94-4.12a5 5 0 1 0-2 0A6.74 6.74 0 0 0 20 25h3v4.1a5 5 0 1 0 2 0V25h3a6.63 6.63 0 0 0 6.94-6.09A5 5 0 0 0 39 14zm-28 0a3 3 0 1 1 3 3 3 3 0 0 1-3-3zm16 20a3 3 0 1 1-3-3 3 3 0 0 1 3 3zm7-17a3 3 0 1 1 3-3 3 3 0 0 1-3 3z" data-name="Development, Git Fork"></path></g><!----></svg>